<svg width="11" height="11" viewBox="0 0 11 11" fill="none" xmlns="http://www.w3.org/2000/svg">
<path d="M5.49462 0.083374C2.50462 0.083374 0.083374 2.51004 0.083374 5.50004C0.083374 8.49004 2.50462 10.9167 5.49462 10.9167C8.49004 10.9167 10.9167 8.49004 10.9167 5.50004C10.9167 2.51004 8.49004 0.083374 5.49462 0.083374ZM5.50004 9.83337C3.10587 9.83337 1.16671 7.89421 1.16671 5.50004C1.16671 3.10587 3.10587 1.16671 5.50004 1.16671C7.89421 1.16671 9.83337 3.10587 9.83337 5.50004C9.83337 7.89421 7.89421 9.83337 5.50004 9.83337ZM5.77087 2.79171H4.95837V6.04171L7.80212 7.74796L8.20837 7.08171L5.77087 5.63546V2.79171Z" fill="#61719C"/>
</svg>
