<svg width="9" height="13" viewBox="0 0 9 13" fill="none" xmlns="http://www.w3.org/2000/svg">
<path d="M4.5 12.125C3.71058 11.4516 2.97887 10.7134 2.3125 9.91813C1.3125 8.72375 0.125001 6.945 0.125001 5.25C0.124114 3.47972 1.19015 1.88337 2.82567 1.20587C4.46118 0.528379 6.34379 0.903276 7.595 2.15563C8.41779 2.97476 8.8787 4.08899 8.87502 5.25C8.87502 6.945 7.6875 8.72375 6.6875 9.91813C6.02113 10.7134 5.28942 11.4516 4.5 12.125ZM4.5 3.375C3.83013 3.375 3.21114 3.73237 2.8762 4.3125C2.54127 4.89263 2.54127 5.60737 2.8762 6.1875C3.21114 6.76763 3.83013 7.125 4.5 7.125C5.53554 7.125 6.375 6.28553 6.375 5.25C6.375 4.21447 5.53554 3.375 4.5 3.375Z" fill="#243A75" fill-opacity="0.72"/>
</svg>
